<?xml version="1.0" encoding="UTF-8" standalone="no"?>
<!DOCTYPE svg PUBLIC "-//W3C//DTD SVG 1.1//EN" "http://www.w3.org/Graphics/SVG/1.1/DTD/svg11.dtd">
<svg version="1.1" xmlns="http://www.w3.org/2000/svg" xmlns:xlink="http://www.w3.org/1999/xlink" preserveAspectRatio="xMidYMid meet" viewBox="0 0 512 512" width="512" height="512"><defs><path d="M440 56C448.84 56 456 63.16 456 71.99C456 148.79 456 363.2 456 440C456 448.84 448.84 456 440 456C363.2 456 148.79 456 71.99 456C63.16 456 56 448.84 56 440C56 363.2 56 148.79 56 71.99C56 63.16 63.16 56 71.99 56C148.79 56 363.2 56 440 56Z" id="aSMjNH8hK"></path><path d="M363.38 74.75C373.11 74.75 381 82.63 381 92.37C381 168.84 381 380.65 381 457.13C381 466.86 373.11 474.75 363.38 474.75C316.9 474.75 195.09 474.75 148.61 474.75C138.88 474.75 131 466.86 131 457.13C131 380.65 131 168.84 131 92.37C131 82.63 138.88 74.75 148.61 74.75C195.09 74.75 316.9 74.75 363.38 74.75Z" id="c2dF6J0SHV"></path><path d="M315.86 37.25C324.22 37.25 331 44.02 331 52.38C331 64.36 331 85.14 331 97.11C331 105.47 324.22 112.25 315.86 112.25C288.89 112.25 223.11 112.25 196.13 112.25C187.77 112.25 181 105.47 181 97.11C181 85.14 181 64.36 181 52.38C181 44.02 187.77 37.25 196.13 37.25C223.11 37.25 288.89 37.25 315.86 37.25Z" id="gqLYcVPwO"></path><path d="M231 99.75L181 302.97L231 302.97L195.28 449.75L331 246.52L259.57 246.52L309.57 99.75L231 99.75Z" id="b9QO9kLSm"></path></defs><g><g><g><use xlink:href="#aSMjNH8hK" opacity="1" fill="#ff0000" fill-opacity="1"></use><g><use xlink:href="#aSMjNH8hK" opacity="1" fill-opacity="0" stroke="#ff0000" stroke-width="110" stroke-opacity="1"></use></g></g><g><use xlink:href="#c2dF6J0SHV" opacity="1" fill="#ffff00" fill-opacity="1"></use></g><g><use xlink:href="#gqLYcVPwO" opacity="1" fill="#ffff00" fill-opacity="1"></use></g><g><use xlink:href="#b9QO9kLSm" opacity="1" fill="#0000ff" fill-opacity="1"></use></g></g></g></svg>