<?xml version="1.0" encoding="UTF-8" standalone="no"?>
<!DOCTYPE svg PUBLIC "-//W3C//DTD SVG 1.1//EN" "http://www.w3.org/Graphics/SVG/1.1/DTD/svg11.dtd">
<svg version="1.1" xmlns="http://www.w3.org/2000/svg" xmlns:xlink="http://www.w3.org/1999/xlink" preserveAspectRatio="xMidYMid meet" viewBox="0 0 512 512" width="512" height="512"><defs><path d="M456 69.22C456 146.58 456 365.43 456 442.78C456 450.08 450.09 456 442.78 456C365.43 456 146.58 456 69.22 456C61.92 456 56 450.08 56 442.78C56 365.43 56 146.58 56 69.22C56 61.92 61.92 56 69.22 56C146.58 56 365.43 56 442.78 56C450.09 56 456 61.92 456 69.22Z" id="a3GGwVGbYH"></path><path d="M210.66 72.25C210.66 99.92 210.66 171.4 210.66 199.07C210.66 205.47 205.47 210.66 199.07 210.66C171.4 210.66 99.92 210.66 72.25 210.66C65.85 210.66 60.66 205.47 60.66 199.07C60.66 171.4 60.66 99.92 60.66 72.25C60.66 65.85 65.85 60.66 72.25 60.66C99.92 60.66 171.4 60.66 199.07 60.66C205.47 60.66 210.66 65.85 210.66 72.25Z" id="hC0XXrfB8"></path><path d="M451.34 73.55C451.34 100.97 451.34 170.35 451.34 197.77C451.34 204.89 445.57 210.66 438.45 210.66C411.03 210.66 341.65 210.66 314.23 210.66C307.11 210.66 301.34 204.89 301.34 197.77C301.34 170.35 301.34 100.97 301.34 73.55C301.34 66.43 307.11 60.66 314.23 60.66C341.65 60.66 411.03 60.66 438.45 60.66C445.57 60.66 451.34 66.43 451.34 73.55Z" id="a3F7asflxx"></path><path d="M210.66 313.02C210.66 340.69 210.66 412.17 210.66 439.85C210.66 446.24 205.47 451.43 199.07 451.43C171.4 451.43 99.92 451.43 72.25 451.43C65.85 451.43 60.66 446.24 60.66 439.85C60.66 412.17 60.66 340.69 60.66 313.02C60.66 306.62 65.85 301.43 72.25 301.43C99.92 301.43 171.4 301.43 199.07 301.43C205.47 301.43 210.66 306.62 210.66 313.02Z" id="b4Ktdhksni"></path><path d="M451.34 313.02C451.34 340.69 451.34 412.17 451.34 439.85C451.34 446.24 446.15 451.43 439.75 451.43C412.08 451.43 340.6 451.43 312.93 451.43C306.53 451.43 301.34 446.24 301.34 439.85C301.34 412.17 301.34 340.69 301.34 313.02C301.34 306.62 306.53 301.43 312.93 301.43C340.6 301.43 412.08 301.43 439.75 301.43C446.15 301.43 451.34 306.62 451.34 313.02Z" id="bJtWqpfI5"></path></defs><g><g><g><use xlink:href="#a3GGwVGbYH" opacity="1" fill="#c0c0c0" fill-opacity="1"></use><g><use xlink:href="#a3GGwVGbYH" opacity="1" fill-opacity="0" stroke="#c0c0c0" stroke-width="110" stroke-opacity="1"></use></g></g><g><use xlink:href="#hC0XXrfB8" opacity="1" fill="#ff0000" fill-opacity="1"></use><g><use xlink:href="#hC0XXrfB8" opacity="1" fill-opacity="0" stroke="#ff0000" stroke-width="60" stroke-opacity="1"></use></g></g><g><use xlink:href="#a3F7asflxx" opacity="1" fill="#32cd32" fill-opacity="1"></use><g><use xlink:href="#a3F7asflxx" opacity="1" fill-opacity="0" stroke="#32cd32" stroke-width="60" stroke-opacity="1"></use></g></g><g><use xlink:href="#b4Ktdhksni" opacity="1" fill="#0000ff" fill-opacity="1"></use><g><use xlink:href="#b4Ktdhksni" opacity="1" fill-opacity="0" stroke="#0000ff" stroke-width="60" stroke-opacity="1"></use></g></g><g><use xlink:href="#bJtWqpfI5" opacity="1" fill="#ffff00" fill-opacity="1"></use><g><use xlink:href="#bJtWqpfI5" opacity="1" fill-opacity="0" stroke="#ffff00" stroke-width="60" stroke-opacity="1"></use></g></g></g></g></svg>