<?xml version="1.0" encoding="UTF-8" standalone="no"?>
<!DOCTYPE svg PUBLIC "-//W3C//DTD SVG 1.1//EN" "http://www.w3.org/Graphics/SVG/1.1/DTD/svg11.dtd">
<svg version="1.1" xmlns="http://www.w3.org/2000/svg" xmlns:xlink="http://www.w3.org/1999/xlink" preserveAspectRatio="xMidYMid meet" viewBox="0 0 2160 2160" width="2160" height="2160"><defs><path d="M2160 1080C2160 1676.07 1676.07 2160 1080 2160C483.93 2160 0 1676.07 0 1080C0 483.93 483.93 0 1080 0C1676.07 0 2160 483.93 2160 1080Z" id="c3dLqVxt"></path><path d="M1080 0L1589.12 509.12L1080 1018.23L570.88 509.12L1080 0Z" id="bxiEGB5pS"></path><path d="M1080 1141.77L1589.12 1650.88L1080 2160L570.88 1650.88L1080 1141.77Z" id="a1emsnfWlb"></path><path d="M509.12 570.88L1018.24 1080L509.12 1589.12L0 1080L509.12 570.88Z" id="c1iOHx28Mk"></path><path d="M1650.88 570.88L2160 1080L1650.88 1589.12L1141.77 1080L1650.88 570.88Z" id="aKLxET1dx"></path></defs><g><g><g><use xlink:href="#c3dLqVxt" opacity="1" fill="#ffffff" fill-opacity="1"></use></g><g><use xlink:href="#bxiEGB5pS" opacity="1" fill="#ffa500" fill-opacity="1"></use></g><g><use xlink:href="#a1emsnfWlb" opacity="1" fill="#32cd32" fill-opacity="1"></use></g><g><use xlink:href="#c1iOHx28Mk" opacity="1" fill="#ff0000" fill-opacity="1"></use></g><g><use xlink:href="#aKLxET1dx" opacity="1" fill="#0000ff" fill-opacity="1"></use></g></g></g></svg>