<?xml version="1.0" encoding="UTF-8" standalone="no"?>
<!DOCTYPE svg PUBLIC "-//W3C//DTD SVG 1.1//EN" "http://www.w3.org/Graphics/SVG/1.1/DTD/svg11.dtd">
<svg version="1.1" xmlns="http://www.w3.org/2000/svg" xmlns:xlink="http://www.w3.org/1999/xlink" preserveAspectRatio="xMidYMid meet" viewBox="0 0 512 512" width="512" height="512"><defs><path d="M511 256C511 396.74 396.74 511 256 511C115.27 511 1 396.74 1 256C1 115.26 115.27 1 256 1C396.74 1 511 115.26 511 256Z" id="d63Tv17ya"></path><path d="M501 256C501 391.22 391.22 501 256 501C120.78 501 11 391.22 11 256C11 120.78 120.78 11 256 11C391.22 11 501 120.78 501 256Z" id="a2AGrrtdbG"></path><path d="M983.68 166.58L1094.44 102.51L1094.43 230.66L1094.42 358.81L983.67 294.73L872.93 230.65L983.68 166.58Z" id="bHRRpvmnO"></path><path d="M124.55 247.14L317.9 135.52L330.98 158.18L137.63 269.79L124.55 247.14Z" id="aMhd1WW5I"></path><path d="M137.62 241.92L330.96 353.56L317.88 376.21L124.54 264.57L137.62 241.92Z" id="aEhpNrUa"></path><path d="M387.94 144.24C387.94 180.34 358.63 209.65 322.53 209.65C286.43 209.65 257.12 180.34 257.12 144.24C257.12 108.14 286.43 78.83 322.53 78.83C358.63 78.83 387.94 108.14 387.94 144.24Z" id="bMUIeThp3"></path><path d="M194.75 256C194.75 292.1 165.44 321.41 129.35 321.41C93.25 321.41 63.94 292.1 63.94 256C63.94 219.9 93.25 190.59 129.35 190.59C165.44 190.59 194.75 219.9 194.75 256Z" id="a6OfCnDj5K"></path><path d="M387.94 367.76C387.94 403.86 358.63 433.17 322.53 433.17C286.43 433.17 257.12 403.86 257.12 367.76C257.12 331.66 286.43 302.35 322.53 302.35C358.63 302.35 387.94 331.66 387.94 367.76Z" id="a1l3WYCxcL"></path></defs><g><g><g><use xlink:href="#d63Tv17ya" opacity="1" fill="#ffffff" fill-opacity="1"></use></g><g><use xlink:href="#a2AGrrtdbG" opacity="1" fill="#32cd32" fill-opacity="1"></use></g><g><use xlink:href="#bHRRpvmnO" opacity="1" fill="#000000" fill-opacity="1"></use></g><g><use xlink:href="#aMhd1WW5I" opacity="1" fill="#ffffff" fill-opacity="1"></use></g><g><use xlink:href="#aEhpNrUa" opacity="1" fill="#ffffff" fill-opacity="1"></use></g><g><use xlink:href="#bMUIeThp3" opacity="1" fill="#ffffff" fill-opacity="1"></use></g><g><use xlink:href="#a6OfCnDj5K" opacity="1" fill="#ffffff" fill-opacity="1"></use></g><g><use xlink:href="#a1l3WYCxcL" opacity="1" fill="#ffffff" fill-opacity="1"></use></g></g></g></svg>