<?xml version="1.0" encoding="UTF-8" standalone="no"?>
<!DOCTYPE svg PUBLIC "-//W3C//DTD SVG 1.1//EN" "http://www.w3.org/Graphics/SVG/1.1/DTD/svg11.dtd">
<svg version="1.1" xmlns="http://www.w3.org/2000/svg" xmlns:xlink="http://www.w3.org/1999/xlink" preserveAspectRatio="xMidYMid meet" viewBox="0 0 512 512" width="512" height="512"><defs><path d="M511 256C511 396.74 396.74 511 256 511C115.26 511 1 396.74 1 256C1 115.26 115.26 1 256 1C396.74 1 511 115.26 511 256Z" id="bglgg4apQ"></path><path d="M501 256C501 391.22 391.22 501 256 501C120.78 501 11 391.22 11 256C11 120.78 120.78 11 256 11C391.22 11 501 120.78 501 256Z" id="a6dr1yGVv"></path><path d="M290.5 321.01L179 386L179 256L179 126L290.5 191L402 256L290.5 321.01Z" id="a28Ld3Ab"></path></defs><g><g><g><use xlink:href="#bglgg4apQ" opacity="1" fill="#ffffff" fill-opacity="1"></use></g><g><use xlink:href="#a6dr1yGVv" opacity="1" fill="#ff1493" fill-opacity="1"></use></g><g><use xlink:href="#a28Ld3Ab" opacity="1" fill="#ffffff" fill-opacity="1"></use></g></g></g></svg>